<?xml version="1.0" standalone="no"?>
<!DOCTYPE svg PUBLIC "-//W3C//DTD SVG 20010904//EN"
 "http://www.w3.org/TR/2001/REC-SVG-20010904/DTD/svg10.dtd">
<svg version="1.0" xmlns="http://www.w3.org/2000/svg"
 width="724.000000pt" height="724.000000pt" viewBox="0 0 724.000000 724.000000"
 preserveAspectRatio="xMidYMid meet">
<metadata>
Created by potrace 1.11, written by Peter Selinger 2001-2013
</metadata>
<g transform="translate(0.000000,724.000000) scale(0.100000,-0.100000)"
fill="#000000" stroke="none">
<path d="M6175 6906 c-11 -7 -43 -26 -71 -42 -64 -36 -404 -232 -424 -245 -13
-8 -134 -77 -230 -131 -99 -56 -125 -73 -128 -80 -2 -4 -12 -8 -23 -8 -10 0
-19 -4 -19 -10 0 -5 -5 -10 -10 -10 -6 0 -62 -31 -126 -70 -64 -38 -118 -70
-120 -70 -3 0 -41 -22 -85 -50 -44 -27 -83 -50 -85 -50 -2 0 -23 -11 -45 -26
-22 -14 -55 -33 -72 -43 -18 -10 -84 -49 -147 -86 -63 -38 -150 -89 -193 -114
-43 -25 -95 -56 -115 -68 -20 -12 -50 -29 -67 -37 -80 -43 -74 -14 -80 -366
-13 -684 -15 -911 -15 -1325 0 -110 0 -328 0 -485 0 -325 -12 -285 104 -348
80 -44 136 -75 281 -157 66 -37 143 -80 170 -95 28 -15 109 -60 180 -100 72
-40 150 -83 175 -97 25 -14 63 -36 86 -49 l41 -24 89 46 c49 25 94 50 99 54 6
4 64 36 130 70 143 76 311 172 535 308 91 55 166 99 167 98 4 -3 13 -243 18
-443 2 -84 6 -157 10 -163 3 -5 1 -10 -5 -10 -6 0 -9 -4 -6 -8 3 -5 5 -44 5
-88 0 -43 1 -90 2 -104 1 -30 1 -56 0 -93 -2 -62 -3 -83 -2 -97 1 -8 1 -26 0
-40 0 -14 0 -32 0 -40 6 -87 4 -91 -102 -149 -31 -17 -136 -76 -232 -131 -96
-55 -179 -100 -184 -100 -5 0 -11 -4 -13 -8 -1 -5 -28 -22 -58 -38 -81 -45
-145 -81 -235 -134 -44 -25 -87 -49 -95 -53 -8 -4 -37 -21 -65 -37 -27 -16
-61 -36 -75 -42 -14 -7 -32 -19 -40 -26 -8 -7 -17 -11 -20 -10 -3 2 -12 -3
-20 -10 -22 -19 -650 -392 -661 -392 -5 0 -9 -4 -9 -10 0 -5 -7 -10 -15 -10
-8 0 -15 -4 -15 -10 0 -5 -4 -10 -10 -10 -11 0 -177 -97 -197 -114 -9 -8 1
-20 43 -46 30 -19 61 -41 69 -47 7 -7 16 -13 18 -13 3 0 97 -53 209 -118 111
-65 244 -140 293 -167 50 -26 128 -69 175 -95 104 -58 193 -100 209 -100 20 0
390 198 536 287 11 7 26 15 33 19 7 4 68 38 135 77 67 38 140 80 162 92 22 12
110 62 195 110 85 49 173 98 195 109 22 12 42 24 45 27 3 3 37 23 75 44 39 21
92 51 118 67 26 15 52 28 57 28 6 0 10 4 10 8 0 4 12 13 28 20 15 6 43 21 62
33 39 24 364 208 395 224 20 11 20 20 19 905 -1 492 -4 1010 -7 1150 -3 140
-6 284 -6 320 -1 57 -4 66 -24 76 -33 17 -78 42 -112 64 -16 11 -46 29 -65 40
-19 11 -53 32 -75 45 -22 14 -58 35 -80 46 -22 12 -42 25 -45 29 -3 3 -12 10
-20 13 -8 4 -28 15 -45 26 -30 18 -49 29 -157 90 -32 18 -61 37 -64 42 -3 5
-10 7 -15 4 -5 -4 -9 -2 -9 3 0 5 -8 12 -17 15 -10 3 -40 20 -68 36 -27 17
-68 40 -90 53 -22 12 -49 28 -60 35 -56 35 -80 42 -100 29 -20 -13 -200 -118
-245 -143 -14 -8 -38 -23 -55 -33 -16 -11 -37 -23 -45 -27 -8 -3 -46 -25 -85
-48 -183 -109 -545 -315 -554 -315 -5 0 -12 12 -16 28 -8 28 -17 248 -14 362
1 36 1 70 0 75 -4 48 -3 116 2 121 3 3 2 18 -2 32 -5 15 -5 36 -1 47 4 11 5
24 3 28 -7 12 -6 147 0 154 3 3 2 16 -3 29 -5 13 -6 26 0 29 5 3 5 18 1 33 -5
15 -5 36 -1 47 4 11 5 24 3 28 -10 16 -5 145 6 164 5 11 25 26 43 34 18 7 35
16 38 19 3 3 106 64 230 134 124 71 236 136 250 145 14 10 54 33 90 52 36 18
67 36 70 39 3 3 73 44 155 91 140 80 655 382 880 516 55 32 142 83 193 112 50
30 92 56 92 60 0 6 -218 140 -245 150 -5 2 -29 17 -52 32 -23 16 -44 29 -47
29 -3 0 -39 20 -79 45 -41 25 -79 45 -85 45 -6 0 -12 4 -14 8 -2 6 -100 66
-233 142 -16 9 -80 47 -142 84 -61 36 -113 66 -115 66 -2 0 -12 -6 -23 -14z"/>
<path d="M975 6872 c-51 -26 -345 -189 -377 -207 -9 -5 -46 -27 -82 -47 -35
-20 -84 -49 -108 -65 -24 -15 -52 -32 -63 -38 -75 -42 -301 -180 -303 -187 -2
-4 -9 -8 -15 -8 -15 0 -19 -337 -21 -1533 l-1 -868 75 -41 c41 -22 96 -53 123
-69 26 -16 50 -29 54 -29 3 0 14 -6 22 -14 9 -7 41 -27 71 -43 30 -17 186
-106 345 -198 160 -92 305 -175 323 -183 17 -9 32 -19 32 -24 0 -4 4 -8 10 -8
5 0 33 -14 62 -31 29 -18 67 -40 83 -49 17 -10 71 -41 120 -70 50 -29 110 -64
135 -78 25 -13 52 -30 60 -36 8 -7 26 -17 40 -24 14 -6 41 -22 62 -34 41 -26
135 -81 188 -111 19 -10 88 -51 153 -89 106 -63 118 -73 114 -94 -2 -13 -1
-24 2 -24 7 0 6 -109 -2 -116 -3 -3 -1 -19 3 -35 5 -16 6 -29 2 -29 -8 0 -6
-109 2 -117 3 -3 1 -13 -4 -22 -5 -10 -5 -23 0 -30 4 -8 4 -27 0 -42 -5 -16
-5 -29 0 -29 5 0 5 -13 0 -29 -4 -16 -6 -32 -4 -34 7 -7 9 -106 2 -112 -3 -4
-2 -20 2 -36 5 -16 6 -29 2 -29 -4 0 -6 -26 -4 -57 1 -32 3 -64 2 -70 0 -18 0
-39 0 -68 0 -14 0 -32 0 -40 0 -21 0 -43 0 -57 0 -7 0 -35 0 -63 1 -27 1 -54
0 -60 -1 -5 -2 -18 -1 -27 1 -10 -2 -18 -6 -18 -15 0 -63 25 -63 33 0 4 -4 7
-10 7 -5 0 -47 22 -92 49 -132 77 -337 195 -408 233 -66 36 -123 67 -260 140
-41 23 -103 56 -137 74 -62 34 -63 34 -92 16 -17 -9 -146 -87 -288 -172 -142
-85 -267 -160 -278 -166 -80 -44 -105 -58 -140 -80 -22 -13 -56 -32 -75 -42
-19 -9 -37 -20 -40 -23 -3 -3 -30 -19 -60 -36 -113 -61 -115 -64 -72 -86 15
-7 203 -116 417 -242 426 -249 437 -255 510 -297 28 -16 66 -38 85 -50 32 -19
221 -129 428 -250 46 -26 88 -48 93 -48 5 0 9 -4 9 -10 0 -5 4 -10 9 -10 4 0
82 -43 172 -96 153 -89 193 -112 271 -156 29 -16 32 -16 72 5 22 11 43 24 46
27 3 3 16 11 30 17 14 7 52 27 85 46 33 19 80 45 105 59 97 54 147 82 200 111
30 17 104 59 163 94 60 35 110 63 112 63 3 0 29 16 59 35 30 19 57 35 60 35 3
0 39 21 81 46 l75 46 -2 1200 -3 1201 -30 18 c-16 10 -47 27 -67 38 -66 36
-83 46 -98 57 -8 6 -40 25 -70 41 -30 17 -71 39 -90 50 -407 235 -574 332
-665 384 -61 35 -128 73 -150 84 -22 11 -42 22 -45 25 -3 3 -23 15 -45 27 -22
11 -58 31 -80 43 -71 40 -181 101 -260 144 -11 6 -28 17 -37 25 -10 8 -18 10
-18 5 0 -5 -4 -4 -8 2 -4 6 -41 29 -82 51 -41 22 -91 49 -110 61 -19 11 -67
37 -107 58 -122 64 -112 44 -114 242 0 96 1 176 4 178 3 3 1 21 -3 40 -5 19
-4 37 1 40 5 3 7 9 5 13 -7 11 -7 128 -1 311 3 91 8 219 10 285 2 66 4 126 4
133 1 6 5 12 10 12 7 0 116 -62 231 -130 63 -38 149 -88 160 -93 8 -4 33 -18
55 -32 22 -14 56 -34 75 -44 19 -10 104 -60 188 -110 85 -50 156 -91 158 -91
2 0 23 -12 45 -26 l41 -25 271 135 c150 75 308 156 352 181 44 25 91 51 105
58 14 6 27 14 30 17 3 3 26 17 53 30 26 14 47 29 47 33 0 5 5 5 10 2 6 -3 10
-2 10 3 0 5 8 12 18 15 19 6 74 38 82 48 3 4 24 16 48 28 23 12 42 26 42 32 0
5 -15 17 -32 25 -18 9 -51 26 -73 39 -22 14 -47 28 -55 32 -8 3 -17 9 -20 12
-5 6 -30 20 -110 63 -19 10 -48 27 -65 37 -16 10 -47 28 -68 40 -21 12 -71 40
-110 62 -40 23 -92 53 -117 67 -25 14 -58 34 -75 44 -16 10 -46 26 -65 35 -19
9 -42 22 -50 29 -8 6 -37 24 -65 39 -84 47 -137 77 -187 106 -27 16 -52 29
-55 29 -4 0 -14 6 -22 14 -9 8 -40 27 -69 42 -29 16 -61 34 -70 39 -52 30
-183 106 -222 127 -71 40 -123 70 -150 87 -14 8 -27 16 -30 16 -3 0 -16 8 -30
17 -82 52 -313 178 -328 177 -9 0 -39 -12 -67 -27z"/>
</g>
</svg>
